<svg t="1737277794164" class="icon" viewBox="0 0 1024 1024" version="1.1" xmlns="http://www.w3.org/2000/svg" p-id="9355" width="200" height="200"><path d="M934.15 312.54L536.44 497.25c-12.68 5.89-27.6 5.9-40.29 0.03L96.98 312.56c-32.18-14.89-33.74-57.12-2.73-74.03L493.4 20.77c14.13-7.71 31.64-7.7 45.76 0.03l397.72 217.76c30.93 16.93 29.37 59.06-2.74 73.97z" fill="#F66462" p-id="9356"></path><path d="M439 1004L30.87 808.56c-8.77-4.3-14.26-12.77-14.27-22l-0.4-424.14c-0.02-18.63 21.14-30.67 38.93-22.15L475.56 541.5c9.24 4.42 14.89 13.43 14.49 23.09l-4.06 420.69c-0.75 18.12-28 27.73-47 18.73z" fill="#FFA4A4" p-id="9357"></path><path d="M1008.27 371.86c-0.08-18.94-21.49-31.21-39.68-22.74L550.81 543.66c-9.13 4.25-14.96 12.87-15.15 22.37l-8.28 416.72c-0.37 18.75 20.6 31.28 38.75 23.16l428.34-191.86c9.53-4.27 15.57-13.26 15.53-23.11l-1.73-419.08zM623 793c0 11.05-8.95 20-20 20s-20-8.95-20-20V616c0-11.05 8.95-20 20-20s20 8.95 20 20v177z" fill="#F66462" p-id="9358"></path></svg>
